<?xml version="1.0" encoding="UTF-8"?>
<svg id="Capa_2" data-name="Capa 2" xmlns="http://www.w3.org/2000/svg" xmlns:xlink="http://www.w3.org/1999/xlink" viewBox="0 0 83.42 130.19">
  <defs>
    <style>
      .cls-1 {
        filter: url(#drop-shadow-1);
      }

      .cls-2 {
        fill: #fff;
      }

      .cls-3 {
        fill: url(#Degradado_sin_nombre_56);
      }
    </style>
    <linearGradient id="Degradado_sin_nombre_56" data-name="Degradado sin nombre 56" x1="40.96" y1="36.17" x2="60.02" y2="177.11" gradientUnits="userSpaceOnUse">
      <stop offset="0" stop-color="#f93549"/>
      <stop offset=".63" stop-color="#ff6f6d"/>
    </linearGradient>
    <filter id="drop-shadow-1" x="13.46" y="10.56" width="60" height="66" filterUnits="userSpaceOnUse">
      <feOffset dx="1.42" dy="1.42"/>
      <feGaussianBlur result="blur" stdDeviation="1.42"/>
      <feFlood flood-color="#000" flood-opacity=".15"/>
      <feComposite in2="blur" operator="in"/>
      <feComposite in="SourceGraphic"/>
    </filter>
  </defs>
  <g id="Layer_2" data-name="Layer 2">
    <rect class="cls-3" width="83.42" height="83.42" rx="21.21" ry="21.21"/>
    <g class="cls-1">
      <g>
        <path class="cls-2" d="M34.97,34.64c-5.6-3.09-11.6-6.29-16.4-8.6l-2,3.47c4.41,3.01,10.18,6.6,15.65,9.9l2.75-4.77Z"/>
        <path class="cls-2" d="M51.45,44.16l-2.75,4.76c5.53,3.05,11.42,6.19,16.15,8.47l2-3.47c-4.34-2.96-10-6.49-15.41-9.76Z"/>
      </g>
      <g>
        <path class="cls-2" d="M38.88,51.37c.12,6.3.36,12.99.76,18.22h4.15c.39-5.23.63-11.92.76-18.22h-5.66Z"/>
        <path class="cls-2" d="M44.55,32.34c-.12-6.39-.36-13.19-.76-18.51h-4.15c-.4,5.31-.64,12.12-.76,18.51h5.67Z"/>
      </g>
      <path class="cls-2" d="M64.85,26.03c-7.3,3.52-17.45,9.09-24.57,13.2-7.12,4.11-17.02,10.11-23.72,14.68l2,3.47c7.3-3.52,17.45-9.09,24.57-13.2,7.12-4.11,17.02-10.11,23.72-14.68l-2-3.47Z"/>
    </g>
    <g>
      <path class="cls-2" d="M28.26,122.43c-2.05,1.81-4.73,2.99-7.58,2.99-6.43,0-11.3-5.11-11.3-11.89s4.86-11.89,11.3-11.89c2.7,0,5.17,1.01,7.12,2.68h.37v-8.52h-.36l-.54.94c-.28.48-.8.77-1.36.76h0c-.52-.02-1.03-.09-1.53-.2-1.19-.27-2.43-.42-3.7-.42-9.52,0-16.72,7.15-16.72,16.66s7.19,16.66,16.72,16.66c2.89,0,5.61-.74,7.98-2.04v-5.73h-.4Z"/>
      <path class="cls-2" d="M53.33,122.66l-.43.75c-.35.61-.95,1.04-1.65,1.17-1.27.25-2.55.37-3.84.37h-7.12v-27.76h-7.5v.36l.93.54c.5.29.86.79.97,1.36.11.59.17,1.19.17,1.79v28.48h18.83v-7.06h-.37Z"/>
      <path class="cls-2" d="M79.09,122.66l-.43.75c-.35.61-.95,1.04-1.65,1.17h-.01c-1.27.25-2.55.37-3.84.37h-8.94l.47-.37c1.23-.98,2.4-2.03,3.5-3.15l7.33-7.48c3.9-3.98,3.9-10.21,0-14.2-1.98-2-4.63-3.11-7.49-3.11-2.53,0-4.74,1.12-6.56,2.64-.59.5-1.22.95-1.87,1.36h0c-.55.34-1.2.46-1.84.34l-.77-.14-.31.31,4.62,4.71s2.43-2.45,4.04-3.59c.79-.56,1.72-.86,2.68-.86,1.26,0,2.45.52,3.39,1.46,2.12,2.17,2.12,5.81,0,7.98l-13.54,13.8v5.07h21.59v-7.06h-.37Z"/>
    </g>
  </g>
</svg>