<?xml version="1.0" encoding="UTF-8"?>
<svg id="Capa_2" data-name="Capa 2" xmlns="http://www.w3.org/2000/svg" xmlns:xlink="http://www.w3.org/1999/xlink" viewBox="0 0 83.42 83.42">
  <defs>
    <style>
      .cls-1 {
        filter: url(#drop-shadow-1);
      }

      .cls-2 {
        fill: #fff;
      }

      .cls-3 {
        fill: url(#Degradado_sin_nombre_56);
      }
    </style>
    <linearGradient id="Degradado_sin_nombre_56" data-name="Degradado sin nombre 56" x1="40.96" y1="36.17" x2="60.02" y2="177.11" gradientUnits="userSpaceOnUse">
      <stop offset="0" stop-color="#f93549"/>
      <stop offset=".63" stop-color="#ff6f6d"/>
    </linearGradient>
    <filter id="drop-shadow-1" x="13.46" y="10.56" width="60" height="66" filterUnits="userSpaceOnUse">
      <feOffset dx="1.42" dy="1.42"/>
      <feGaussianBlur result="blur" stdDeviation="1.42"/>
      <feFlood flood-color="#000" flood-opacity=".15"/>
      <feComposite in2="blur" operator="in"/>
      <feComposite in="SourceGraphic"/>
    </filter>
  </defs>
  <g id="Layer_2" data-name="Layer 2">
    <rect class="cls-3" width="83.42" height="83.42" rx="21.21" ry="21.21"/>
    <g class="cls-1">
      <g>
        <path class="cls-2" d="M34.97,34.64c-5.6-3.09-11.6-6.29-16.4-8.6l-2,3.47c4.41,3.01,10.18,6.6,15.65,9.9l2.75-4.77Z"/>
        <path class="cls-2" d="M51.45,44.16l-2.75,4.76c5.53,3.05,11.42,6.19,16.15,8.47l2-3.47c-4.34-2.96-10-6.49-15.41-9.76Z"/>
      </g>
      <g>
        <path class="cls-2" d="M38.88,51.37c.12,6.3.36,12.99.76,18.22h4.15c.39-5.23.63-11.92.76-18.22h-5.66Z"/>
        <path class="cls-2" d="M44.55,32.34c-.12-6.39-.36-13.19-.76-18.51h-4.15c-.4,5.31-.64,12.12-.76,18.51h5.67Z"/>
      </g>
      <path class="cls-2" d="M64.85,26.03c-7.3,3.52-17.45,9.09-24.57,13.2-7.12,4.11-17.02,10.11-23.72,14.68l2,3.47c7.3-3.52,17.45-9.09,24.57-13.2,7.12-4.11,17.02-10.11,23.72-14.68l-2-3.47Z"/>
    </g>
  </g>
</svg>